<svg width="283" height="266" viewBox="0 0 283 266" fill="none" xmlns="http://www.w3.org/2000/svg">
<mask id="mask0" mask-type="alpha" maskUnits="userSpaceOnUse" x="65" y="14" width="71" height="71">
<path d="M67.2581 49.4034C63.936 46.926 64.8968 41.7146 68.8839 40.5847L84.2559 36.2284C85.8392 35.7797 87.1004 34.5806 87.6283 33.022L92.7543 17.8892C94.0839 13.9641 99.3372 13.2675 101.644 16.7103L110.537 29.9838C111.453 31.3509 112.983 32.1798 114.629 32.2003L130.605 32.3992C134.749 32.4508 137.035 37.2316 134.473 40.4893L124.597 53.049C123.58 54.3427 123.265 56.054 123.754 57.6253L128.502 72.881C129.733 76.8379 125.893 80.4893 122.003 79.0599L107.006 73.5487C105.461 72.9811 103.736 73.2099 102.393 74.1605L89.3511 83.3902C85.9684 85.7841 81.3089 83.26 81.4664 79.1188L82.0735 63.153C82.1361 61.5085 81.3854 59.9386 80.0662 58.9548L67.2581 49.4034Z" fill="#C4C4C4"/>
</mask>
<g mask="url(#mask0)">
<path d="M67.2581 49.4034C63.936 46.926 64.8968 41.7146 68.8839 40.5847L84.2559 36.2284C85.8392 35.7797 87.1004 34.5806 87.6283 33.022L92.7543 17.8892C94.0839 13.9641 99.3372 13.2675 101.644 16.7103L110.537 29.9838C111.453 31.3509 112.983 32.1798 114.629 32.2003L130.605 32.3992C134.749 32.4508 137.035 37.2316 134.473 40.4893L124.597 53.049C123.58 54.3427 123.265 56.054 123.754 57.6253L128.502 72.881C129.733 76.8379 125.893 80.4893 122.003 79.0599L107.006 73.5487C105.461 72.9811 103.736 73.2099 102.393 74.1605L89.3511 83.3902C85.9684 85.7841 81.3089 83.26 81.4664 79.1188L82.0735 63.153C82.1361 61.5085 81.3854 59.9386 80.0662 58.9548L67.2581 49.4034Z" fill="#FFD9E3"/>
<path d="M101.694 51.1928L130.443 81.4282L139.671 32.9651L101.694 51.1928Z" fill="#F1768A"/>
<path d="M101.695 51.1927L80.9328 89.0214L129.749 80.4193L101.695 51.1927Z" fill="#FFB7C2"/>
<path d="M101.693 51.1926L96.3233 10.3063L61.4059 43.7654L101.693 51.1926Z" fill="#FFB7C2"/>
<path d="M101.694 51.1925L95.966 8.49933L138.379 33.6068L101.694 51.1925Z" fill="#FA8B9D"/>
</g>
<mask id="mask1" mask-type="alpha" maskUnits="userSpaceOnUse" x="164" y="45" width="90" height="93">
<path d="M192.947 49.7503C193.411 45.6323 198.396 43.8342 201.382 46.7076L218.292 62.9788C219.478 64.1199 221.149 64.6043 222.762 64.2743L245.752 59.5689C249.812 58.7379 253.062 62.9231 251.252 66.6511L241.003 87.7613C240.284 89.2417 240.34 90.981 241.152 92.4124L252.731 112.823C254.776 116.428 251.8 120.813 247.695 120.243L224.451 117.019C222.821 116.793 221.184 117.383 220.074 118.598L204.24 135.918C201.444 138.977 196.354 137.501 195.627 133.421L191.511 110.318C191.222 108.698 190.155 107.324 188.657 106.643L167.291 96.9366C163.518 95.2225 163.349 89.926 167.004 87.9739L187.704 76.9198C189.156 76.1446 190.133 74.7047 190.318 73.0694L192.947 49.7503Z" fill="#C4C4C4"/>
</mask>
<g mask="url(#mask1)">
<path d="M192.947 49.7503C193.411 45.6323 198.396 43.8342 201.382 46.7076L218.292 62.9788C219.478 64.1199 221.149 64.6043 222.762 64.2743L245.752 59.5689C249.812 58.7379 253.062 62.9231 251.252 66.6511L241.003 87.7613C240.284 89.2417 240.34 90.981 241.152 92.4124L252.731 112.823C254.776 116.428 251.8 120.813 247.695 120.243L224.451 117.019C222.821 116.793 221.184 117.383 220.074 118.598L204.24 135.918C201.444 138.977 196.354 137.501 195.627 133.421L191.511 110.318C191.222 108.698 190.155 107.324 188.657 106.643L167.291 96.9366C163.518 95.2225 163.349 89.926 167.004 87.9739L187.704 76.9198C189.156 76.1446 190.133 74.7047 190.318 73.0694L192.947 49.7503Z" fill="#FFD9E3"/>
<path d="M212.593 90.9991L197.952 141.515L256.576 120.755L212.593 90.9991Z" fill="#F1768A"/>
<path d="M212.593 90.9997L158.214 92.4434L198.608 140.119L212.593 90.9997Z" fill="#FFB7C2"/>
<path d="M212.592 90.9989L253.689 59.1635L195.069 42.4194L212.592 90.9989Z" fill="#FFB7C2"/>
<path d="M212.593 90.9991L255.429 57.6257L255.056 119.757L212.593 90.9991Z" fill="#FA8B9D"/>
</g>
<mask id="mask2" mask-type="alpha" maskUnits="userSpaceOnUse" x="39" y="102" width="129" height="134">
<path d="M115.688 104.125C118.659 101.236 123.653 103.009 124.138 107.125L128.548 144.534C128.741 146.169 129.726 147.604 131.181 148.371L164.499 165.946C168.164 167.88 168.021 173.177 164.257 174.91L130.041 190.665C128.546 191.353 127.486 192.733 127.205 194.355L120.786 231.472C120.08 235.556 114.998 237.057 112.186 234.012L86.6295 206.34C85.5129 205.131 83.873 204.549 82.2442 204.783L44.9596 210.148C40.8576 210.738 37.8595 206.369 39.8861 202.754L58.307 169.897C59.1117 168.461 59.1586 166.722 58.4324 165.245L41.8085 131.443C39.9796 127.724 43.2088 123.522 47.273 124.333L84.2144 131.699C85.8282 132.02 87.4971 131.528 88.6772 130.38L115.688 104.125Z" fill="#C4C4C4"/>
</mask>
<g mask="url(#mask2)">
<path d="M115.688 104.125C118.659 101.236 123.653 103.009 124.138 107.125L128.548 144.534C128.741 146.169 129.726 147.604 131.181 148.371L164.499 165.946C168.164 167.88 168.021 173.177 164.257 174.91L130.041 190.665C128.546 191.353 127.486 192.733 127.205 194.355L120.786 231.472C120.08 235.556 114.998 237.057 112.186 234.012L86.6295 206.34C85.5129 205.131 83.873 204.549 82.2442 204.783L44.9596 210.148C40.8576 210.738 37.8595 206.369 39.8861 202.754L58.307 169.897C59.1117 168.461 59.1586 166.722 58.4324 165.245L41.8085 131.443C39.9796 127.724 43.2088 123.522 47.273 124.333L84.2144 131.699C85.8282 132.02 87.4971 131.528 88.6772 130.38L115.688 104.125Z" fill="#FFD9E3"/>
<path d="M97.5488 168.627L37.1809 210.051L118.594 239.489L97.5488 168.627Z" fill="#F1768A"/>
<path d="M97.5486 168.627L37.7629 122.155L39.1213 209.128L97.5486 168.627Z" fill="#FFB7C2"/>
<path d="M97.549 168.627L169.884 170.668L121.598 100.881L97.549 168.627Z" fill="#FFB7C2"/>
<path d="M97.5492 168.627L173.115 170.549L117.841 237.072L97.5492 168.627Z" fill="#FA8B9D"/>
</g>
<mask id="mask3" mask-type="alpha" maskUnits="userSpaceOnUse" x="193" y="170" width="51" height="50">
<path d="M239.669 186.792C243.697 187.764 244.862 192.933 241.64 195.54L234.749 201.114C233.469 202.149 232.781 203.748 232.908 205.388L233.594 214.226C233.914 218.358 229.358 221.063 225.883 218.804L218.452 213.973C217.072 213.076 215.339 212.915 213.818 213.543L205.625 216.926C201.794 218.507 197.813 215.01 198.888 211.007L201.187 202.447C201.613 200.857 201.231 199.16 200.164 197.907L194.415 191.16C191.727 188.006 193.823 183.139 197.961 182.924L206.813 182.465C208.457 182.38 209.953 181.491 210.815 180.089L215.455 172.536C217.624 169.005 222.901 169.495 224.384 173.364L227.556 181.641C228.145 183.178 229.452 184.327 231.052 184.713L239.669 186.792Z" fill="#C4C4C4"/>
</mask>
<g mask="url(#mask3)">
<path d="M239.669 186.792C243.697 187.764 244.862 192.933 241.64 195.54L234.749 201.114C233.469 202.149 232.781 203.748 232.908 205.388L233.594 214.226C233.914 218.358 229.358 221.063 225.883 218.804L218.452 213.973C217.072 213.076 215.339 212.915 213.818 213.543L205.625 216.926C201.794 218.507 197.813 215.01 198.888 211.007L201.187 202.447C201.613 200.857 201.231 199.16 200.164 197.907L194.415 191.16C191.727 188.006 193.823 183.139 197.961 182.924L206.813 182.465C208.457 182.38 209.953 181.491 210.815 180.089L215.455 172.536C217.624 169.005 222.901 169.495 224.384 173.364L227.556 181.641C228.145 183.178 229.452 184.327 231.052 184.713L239.669 186.792Z" fill="#FFD9E3"/>
<path d="M217.751 196.328L188.916 183.912L196.866 220.173L217.751 196.328Z" fill="#F1768A"/>
<path d="M217.752 196.328L220.927 164.013L189.696 184.405L217.752 196.328Z" fill="#FFB7C2"/>
<path d="M217.751 196.328L233.56 223.029L247.822 189.55L217.751 196.328Z" fill="#FFB7C2"/>
<path d="M217.75 196.328L234.342 224.173L197.57 219.347L217.75 196.328Z" fill="#FA8B9D"/>
</g>
</svg>
