<svg width="396" height="325" viewBox="0 0 396 325" fill="none" xmlns="http://www.w3.org/2000/svg">
<mask id="mask0" mask-type="alpha" maskUnits="userSpaceOnUse" x="237" y="217" width="45" height="45">
<path d="M278.036 234.2C281.859 235.802 282.185 241.091 278.589 243.151L272.684 246.532C271.256 247.35 270.322 248.818 270.186 250.458L269.624 257.238C269.282 261.368 264.352 263.313 261.283 260.529L256.242 255.959C255.023 254.853 253.338 254.418 251.737 254.796L245.114 256.357C241.081 257.307 237.708 253.22 239.407 249.44L242.196 243.235C242.871 241.734 242.764 239.997 241.91 238.59L238.379 232.774C236.228 229.232 239.073 224.761 243.193 225.209L249.957 225.944C251.593 226.121 253.212 225.483 254.286 224.236L258.726 219.081C261.43 215.941 266.561 217.265 267.409 221.321L268.8 227.981C269.136 229.592 270.244 230.935 271.762 231.571L278.036 234.2Z" fill="#C4C4C4"/>
</mask>
<g mask="url(#mask0)">
<path d="M278.036 234.2C281.859 235.802 282.185 241.091 278.589 243.151L272.684 246.532C271.256 247.35 270.322 248.818 270.186 250.458L269.624 257.238C269.282 261.368 264.352 263.313 261.283 260.529L256.242 255.959C255.023 254.853 253.338 254.418 251.737 254.796L245.114 256.357C241.081 257.307 237.708 253.22 239.407 249.44L242.196 243.235C242.871 241.734 242.764 239.997 241.91 238.59L238.379 232.774C236.228 229.232 239.073 224.761 243.193 225.209L249.957 225.944C251.593 226.121 253.212 225.483 254.286 224.236L258.726 219.081C261.43 215.941 266.561 217.265 267.409 221.321L268.8 227.981C269.136 229.592 270.244 230.935 271.762 231.571L278.036 234.2Z" fill="#FFD9E3"/>
<path d="M257.975 239.93L234.012 224.682L235.884 258.215L257.975 239.93Z" fill="#F1768A"/>
<path d="M257.977 239.93L265.473 211.526L234.638 225.234L257.977 239.93Z" fill="#FFB7C2"/>
<path d="M257.975 239.93L268.245 266.058L285.811 238.213L257.975 239.93Z" fill="#FFB7C2"/>
<path d="M257.976 239.93L268.779 267.193L236.632 257.579L257.976 239.93Z" fill="#FA8B9D"/>
</g>
<mask id="mask1" mask-type="alpha" maskUnits="userSpaceOnUse" x="107" y="189" width="26" height="27">
<path d="M129.599 197.2C133.421 198.802 133.748 204.091 130.151 206.151L129.949 206.267C128.521 207.085 127.586 208.553 127.45 210.193L127.431 210.426C127.089 214.556 122.159 216.5 119.089 213.716L118.916 213.56C117.697 212.454 116.012 212.019 114.411 212.397L114.183 212.45C110.149 213.401 106.777 209.314 108.476 205.534L108.571 205.321C109.246 203.82 109.139 202.083 108.285 200.676L108.164 200.477C106.013 196.934 108.858 192.463 112.978 192.911L113.21 192.936C114.846 193.114 116.465 192.475 117.539 191.229L117.691 191.052C120.396 187.911 125.527 189.236 126.374 193.292L126.422 193.521C126.758 195.132 127.866 196.474 129.384 197.11L129.599 197.2Z" fill="#C4C4C4"/>
</mask>
<g mask="url(#mask1)">
<path d="M129.599 197.2C133.421 198.802 133.748 204.091 130.151 206.151L129.949 206.267C128.521 207.085 127.586 208.553 127.45 210.193L127.431 210.426C127.089 214.556 122.159 216.5 119.089 213.716L118.916 213.56C117.697 212.454 116.012 212.019 114.411 212.397L114.183 212.45C110.149 213.401 106.777 209.314 108.476 205.534L108.571 205.321C109.246 203.82 109.139 202.083 108.285 200.676L108.164 200.477C106.013 196.934 108.858 192.463 112.978 192.911L113.21 192.936C114.846 193.114 116.465 192.475 117.539 191.229L117.691 191.052C120.396 187.911 125.527 189.236 126.374 193.292L126.422 193.521C126.758 195.132 127.866 196.474 129.384 197.11L129.599 197.2Z" fill="#FFD9E3"/>
<path d="M119.413 202.321L103.498 192.194L104.741 214.465L119.413 202.321Z" fill="#F1768A"/>
<path d="M119.414 202.32L124.393 183.456L103.914 192.56L119.414 202.32Z" fill="#FFB7C2"/>
<path d="M119.414 202.321L126.235 219.674L137.902 201.181L119.414 202.321Z" fill="#FFB7C2"/>
<path d="M119.414 202.321L126.59 220.428L105.239 214.043L119.414 202.321Z" fill="#FA8B9D"/>
</g>
<mask id="mask2" mask-type="alpha" maskUnits="userSpaceOnUse" x="147" y="201" width="60" height="59">
<path d="M169.197 258.821C165.855 261.271 161.154 258.825 161.242 254.682L161.497 242.782C161.532 241.137 160.755 239.58 159.42 238.618L149.761 231.663C146.398 229.241 147.272 224.014 151.24 222.818L162.636 219.383C164.211 218.908 165.452 217.688 165.954 216.12L169.584 204.785C170.849 200.839 176.089 200.054 178.453 203.458L185.242 213.235C186.181 214.586 187.724 215.39 189.37 215.383L201.272 215.333C205.416 215.315 207.782 220.057 205.275 223.357L198.075 232.835C197.079 234.145 196.792 235.862 197.307 237.425L201.033 248.729C202.33 252.665 198.551 256.38 194.638 255.015L183.399 251.096C181.845 250.554 180.124 250.812 178.797 251.785L169.197 258.821Z" fill="#C4C4C4"/>
</mask>
<g mask="url(#mask2)">
<path d="M169.197 258.821C165.855 261.271 161.154 258.825 161.242 254.682L161.497 242.782C161.532 241.137 160.755 239.58 159.42 238.618L149.761 231.663C146.398 229.241 147.272 224.014 151.24 222.818L162.636 219.383C164.211 218.908 165.452 217.688 165.954 216.12L169.584 204.785C170.849 200.839 176.089 200.054 178.453 203.458L185.242 213.235C186.181 214.586 187.724 215.39 189.37 215.383L201.272 215.333C205.416 215.315 207.782 220.057 205.275 223.357L198.075 232.835C197.079 234.145 196.792 235.862 197.307 237.425L201.033 248.729C202.33 252.665 198.551 256.38 194.638 255.015L183.399 251.096C181.845 250.554 180.124 250.812 178.797 251.785L169.197 258.821Z" fill="#FFD9E3"/>
<path d="M178.169 231.866L210.21 215.884L172.767 196.121L178.169 231.866Z" fill="#F1768A"/>
<path d="M178.17 231.866L203.985 258.418L209.208 216.2L178.17 231.866Z" fill="#FFB7C2"/>
<path d="M178.169 231.866L143.271 225.987L161.94 263.054L178.169 231.866Z" fill="#FFB7C2"/>
<path d="M178.17 231.866L141.699 225.826L172.97 197.342L178.17 231.866Z" fill="#FA8B9D"/>
</g>
<mask id="mask3" mask-type="alpha" maskUnits="userSpaceOnUse" x="251" y="66" width="46" height="45">
<path d="M288.633 104.938C289.176 109.046 284.773 111.995 281.182 109.927L275.095 106.424C273.668 105.603 271.93 105.537 270.445 106.246L264.108 109.275C260.369 111.061 256.204 107.785 257.06 103.73L258.511 96.8587C258.851 95.2485 258.377 93.5742 257.243 92.3813L252.405 87.2906C249.55 84.2866 251.379 79.313 255.5 78.8742L262.483 78.1306C264.12 77.9564 265.566 76.988 266.35 75.5412L269.696 69.3668C271.671 65.7233 276.966 65.9258 278.657 69.7094L281.522 76.1214C282.194 77.6239 283.562 78.6998 285.18 78.9985L292.086 80.2732C296.162 81.0254 297.605 86.1242 294.529 88.9013L289.317 93.6078C288.095 94.7106 287.495 96.3438 287.711 97.9753L288.633 104.938Z" fill="#C4C4C4"/>
</mask>
<g mask="url(#mask3)">
<path d="M288.633 104.938C289.176 109.046 284.773 111.995 281.182 109.927L275.095 106.424C273.668 105.603 271.93 105.537 270.445 106.246L264.108 109.275C260.369 111.061 256.204 107.785 257.06 103.73L258.511 96.8587C258.851 95.2485 258.377 93.5742 257.243 92.3813L252.405 87.2906C249.55 84.2866 251.379 79.313 255.5 78.8742L262.483 78.1306C264.12 77.9564 265.566 76.988 266.35 75.5412L269.696 69.3668C271.671 65.7233 276.966 65.9258 278.657 69.7094L281.522 76.1214C282.194 77.6239 283.562 78.6998 285.18 78.9985L292.086 80.2732C296.162 81.0254 297.605 86.1242 294.529 88.9013L289.317 93.6078C288.095 94.7106 287.495 96.3438 287.711 97.9753L288.633 104.938Z" fill="#FFD9E3"/>
<path d="M273.386 90.2284L274.482 61.528L246.154 80.2605L273.386 90.2284Z" fill="#F1768A"/>
<path d="M273.385 90.2282L302.011 82.2916L274.318 62.3546L273.385 90.2282Z" fill="#FFB7C2"/>
<path d="M273.385 90.229L255.805 112.519L289.077 113.661L273.385 90.229Z" fill="#FFB7C2"/>
<path d="M273.385 90.2289L255.087 113.563L247.09 80.5894L273.385 90.2289Z" fill="#FA8B9D"/>
</g>
<mask id="mask4" mask-type="alpha" maskUnits="userSpaceOnUse" x="292" y="173" width="63" height="61">
<path d="M343.572 227.5C344.116 231.609 339.713 234.557 336.122 232.49L324.982 226.079C323.556 225.258 321.817 225.191 320.332 225.901L308.735 231.443C304.996 233.23 300.831 229.954 301.687 225.899L304.342 213.323C304.682 211.713 304.208 210.039 303.074 208.846L294.22 199.529C291.365 196.525 293.194 191.551 297.315 191.113L310.096 189.752C311.732 189.578 313.178 188.609 313.962 187.162L320.087 175.862C322.061 172.219 327.357 172.421 329.048 176.205L334.291 187.94C334.963 189.442 336.33 190.518 337.949 190.817L350.588 193.15C354.664 193.902 356.107 199.001 353.031 201.778L343.491 210.391C342.27 211.494 341.669 213.127 341.885 214.759L343.572 227.5Z" fill="#C4C4C4"/>
</mask>
<g mask="url(#mask4)">
<path d="M343.572 227.5C344.116 231.609 339.713 234.557 336.122 232.49L324.982 226.079C323.556 225.258 321.817 225.191 320.332 225.901L308.735 231.443C304.996 233.23 300.831 229.954 301.687 225.899L304.342 213.323C304.682 211.713 304.208 210.039 303.074 208.846L294.22 199.529C291.365 196.525 293.194 191.551 297.315 191.113L310.096 189.752C311.732 189.578 313.178 188.609 313.962 187.162L320.087 175.862C322.061 172.219 327.357 172.421 329.048 176.205L334.291 187.94C334.963 189.442 336.33 190.518 337.949 190.817L350.588 193.15C354.664 193.902 356.107 199.001 353.031 201.778L343.491 210.391C342.27 211.494 341.669 213.127 341.885 214.759L343.572 227.5Z" fill="#FFD9E3"/>
<path d="M323.44 205.497L324.859 168.338L288.183 192.591L323.44 205.497Z" fill="#F1768A"/>
<path d="M323.441 205.497L360.503 195.222L324.649 169.41L323.441 205.497Z" fill="#FFB7C2"/>
<path d="M323.441 205.497L300.681 234.355L343.758 235.834L323.441 205.497Z" fill="#FFB7C2"/>
<path d="M323.44 205.497L299.749 235.708L289.396 193.017L323.44 205.497Z" fill="#FA8B9D"/>
</g>
<mask id="mask5" mask-type="alpha" maskUnits="userSpaceOnUse" x="147" y="65" width="62" height="62">
<path d="M151.764 78.1405C150.29 74.2672 153.897 70.3855 157.868 71.5719L170.183 75.2516C171.76 75.7227 173.468 75.3878 174.75 74.356L184.762 66.2972C187.991 63.6988 192.797 65.9303 192.896 70.0733L193.202 82.9226C193.241 84.5678 194.087 86.0884 195.465 86.9888L206.223 94.0212C209.692 96.2886 209.055 101.549 205.145 102.924L193.02 107.185C191.467 107.731 190.282 109.006 189.852 110.594L186.488 122.999C185.403 126.999 180.203 128.018 177.688 124.725L169.888 114.509C168.889 113.201 167.311 112.469 165.667 112.55L152.83 113.184C148.691 113.389 146.114 108.758 148.469 105.348L155.774 94.7732C156.71 93.4192 156.919 91.6916 156.334 90.1535L151.764 78.1405Z" fill="#C4C4C4"/>
</mask>
<g mask="url(#mask5)">
<path d="M151.764 78.1405C150.29 74.2672 153.897 70.3855 157.868 71.5719L170.183 75.2516C171.76 75.7227 173.468 75.3878 174.75 74.356L184.762 66.2972C187.991 63.6988 192.797 65.9303 192.896 70.0733L193.202 82.9226C193.241 84.5678 194.087 86.0884 195.465 86.9888L206.223 94.0212C209.692 96.2886 209.055 101.549 205.145 102.924L193.02 107.185C191.467 107.731 190.282 109.006 189.852 110.594L186.488 122.999C185.403 126.999 180.203 128.018 177.688 124.725L169.888 114.509C168.889 113.201 167.311 112.469 165.667 112.55L152.83 113.184C148.691 113.389 146.114 108.758 148.469 105.348L155.774 94.7732C156.71 93.4192 156.919 91.6916 156.334 90.1535L151.764 78.1405Z" fill="#FFD9E3"/>
<path d="M176.414 94.9288L183.572 131.419L213.693 99.3862L176.414 94.9288Z" fill="#F1768A"/>
<path d="M176.413 94.9281L142.705 113.446L183.532 130.327L176.413 94.9281Z" fill="#FFB7C2"/>
<path d="M176.413 94.9286L191.932 61.6114L149.667 70.0721L176.413 94.9286Z" fill="#FFB7C2"/>
<path d="M176.413 94.9282L192.526 60.081L212.413 99.2504L176.413 94.9282Z" fill="#FA8B9D"/>
</g>
<mask id="mask6" mask-type="alpha" maskUnits="userSpaceOnUse" x="196" y="121" width="88" height="86">
<path d="M241.735 204.515C239.549 208.036 234.274 207.521 232.81 203.645L225.185 183.466C224.604 181.927 223.302 180.772 221.704 180.379L200.759 175.22C196.735 174.229 195.595 169.054 198.829 166.463L215.664 152.976C216.948 151.948 217.644 150.353 217.524 148.711L215.958 127.198C215.657 123.064 220.227 120.38 223.69 122.656L241.719 134.499C243.094 135.402 244.826 135.571 246.35 134.95L266.327 126.813C270.165 125.249 274.13 128.766 273.036 132.763L267.344 153.569C266.909 155.156 267.284 156.856 268.345 158.113L282.258 174.598C284.931 177.765 282.812 182.622 278.672 182.817L257.125 183.833C255.482 183.91 253.981 184.791 253.113 186.189L241.735 204.515Z" fill="#C4C4C4"/>
</mask>
<g mask="url(#mask6)">
<path d="M241.735 204.515C239.549 208.036 234.274 207.521 232.81 203.645L225.185 183.466C224.604 181.927 223.302 180.772 221.704 180.379L200.759 175.22C196.735 174.229 195.595 169.054 198.829 166.463L215.664 152.976C216.948 151.948 217.644 150.353 217.524 148.711L215.958 127.198C215.657 123.064 220.227 120.38 223.69 122.656L241.719 134.499C243.094 135.402 244.826 135.571 246.35 134.95L266.327 126.813C270.165 125.249 274.13 128.766 273.036 132.763L267.344 153.569C266.909 155.156 267.284 156.856 268.345 158.113L282.258 174.598C284.931 177.765 282.812 182.622 278.672 182.817L257.125 183.833C255.482 183.91 253.981 184.791 253.113 186.189L241.735 204.515Z" fill="#FFD9E3"/>
<path d="M241.408 161.669L274.478 124.378L215.854 118.316L241.408 161.669Z" fill="#F1768A"/>
<path d="M241.408 161.669L288.545 182.54L273.348 125.307L241.408 161.669Z" fill="#FFB7C2"/>
<path d="M241.406 161.668L193.284 172.213L236.657 210.377L241.406 161.668Z" fill="#FFB7C2"/>
<path d="M241.407 161.669L191.171 172.823L216.749 119.788L241.407 161.669Z" fill="#FA8B9D"/>
</g>
<mask id="mask7" mask-type="alpha" maskUnits="userSpaceOnUse" x="39" y="103" width="87" height="86">
<path d="M84.0355 186.007C81.8494 189.528 76.5752 189.014 75.1104 185.137L67.4862 164.959C66.9045 163.419 65.6026 162.265 64.0047 161.871L43.0601 156.712C39.0362 155.721 37.8954 150.546 41.1297 147.955L57.9643 134.469C59.2487 133.44 59.9445 131.845 59.825 130.203L58.259 108.69C57.9581 104.557 62.5273 101.873 65.991 104.148L84.0196 115.991C85.395 116.894 87.127 117.063 88.651 116.443L108.628 108.305C112.466 106.742 116.43 110.258 115.337 114.255L109.644 135.061C109.21 136.648 109.585 138.348 110.646 139.605L124.559 156.09C127.231 159.257 125.112 164.114 120.973 164.309L99.4263 165.325C97.7824 165.402 96.282 166.284 95.4139 167.682L84.0355 186.007Z" fill="#C4C4C4"/>
</mask>
<g mask="url(#mask7)">
<path d="M84.0355 186.007C81.8494 189.528 76.5752 189.014 75.1104 185.137L67.4862 164.959C66.9045 163.419 65.6026 162.265 64.0047 161.871L43.0601 156.712C39.0362 155.721 37.8954 150.546 41.1297 147.955L57.9643 134.469C59.2487 133.44 59.9445 131.845 59.825 130.203L58.259 108.69C57.9581 104.557 62.5273 101.873 65.991 104.148L84.0196 115.991C85.395 116.894 87.127 117.063 88.651 116.443L108.628 108.305C112.466 106.742 116.43 110.258 115.337 114.255L109.644 135.061C109.21 136.648 109.585 138.348 110.646 139.605L124.559 156.09C127.231 159.257 125.112 164.114 120.973 164.309L99.4263 165.325C97.7824 165.402 96.282 166.284 95.4139 167.682L84.0355 186.007Z" fill="#FFD9E3"/>
<path d="M83.7084 143.161L116.778 105.87L58.1552 99.8082L83.7084 143.161Z" fill="#F1768A"/>
<path d="M83.7092 143.161L130.846 164.032L115.649 106.799L83.7092 143.161Z" fill="#FFB7C2"/>
<path d="M83.7069 143.16L35.5849 153.705L78.9576 191.869L83.7069 143.16Z" fill="#FFB7C2"/>
<path d="M83.7078 143.161L33.4713 154.315L59.0498 101.281L83.7078 143.161Z" fill="#FA8B9D"/>
</g>
<mask id="mask8" mask-type="alpha" maskUnits="userSpaceOnUse" x="142" y="148" width="32" height="31">
<path d="M147.764 173.012C143.62 173.042 141.241 168.307 143.738 164.999L144.92 163.434C145.912 162.121 146.194 160.404 145.674 158.842L145.055 156.981C143.746 153.049 147.514 149.323 151.431 150.676L153.285 151.317C154.84 151.854 156.561 151.591 157.885 150.615L159.463 149.451C162.798 146.991 167.507 149.423 167.43 153.567L167.394 155.527C167.364 157.173 168.145 158.728 169.483 159.686L171.078 160.827C174.448 163.239 173.59 168.468 169.625 169.676L167.749 170.247C166.175 170.727 164.938 171.951 164.44 173.519L163.848 175.389C162.595 179.339 157.357 180.139 154.983 176.742L153.86 175.134C152.917 173.785 151.371 172.986 149.725 172.998L147.764 173.012Z" fill="#C4C4C4"/>
</mask>
<g mask="url(#mask8)">
<path d="M147.764 173.012C143.62 173.042 141.241 168.307 143.738 164.999L144.92 163.434C145.912 162.121 146.194 160.404 145.674 158.842L145.055 156.981C143.746 153.049 147.514 149.323 151.431 150.676L153.285 151.317C154.84 151.854 156.561 151.591 157.885 150.615L159.463 149.451C162.798 146.991 167.507 149.423 167.43 153.567L167.394 155.527C167.364 157.173 168.145 158.728 169.483 159.686L171.078 160.827C174.448 163.239 173.59 168.468 169.625 169.676L167.749 170.247C166.175 170.727 164.938 171.951 164.44 173.519L163.848 175.389C162.595 179.339 157.357 180.139 154.983 176.742L153.86 175.134C152.917 173.785 151.371 172.986 149.725 172.998L147.764 173.012Z" fill="#FFD9E3"/>
<path d="M157.442 163.132L178.532 166.593L167.319 143.946L157.442 163.132Z" fill="#F1768A"/>
<path d="M157.442 163.132L160.657 185.002L177.937 166.396L157.442 163.132Z" fill="#FFB7C2"/>
<path d="M157.441 163.132L142.607 148.092L138.69 172.554L157.441 163.132Z" fill="#FFB7C2"/>
<path d="M157.441 163.132L141.903 147.465L166.988 144.607L157.441 163.132Z" fill="#FA8B9D"/>
</g>
<mask id="mask9" mask-type="alpha" maskUnits="userSpaceOnUse" x="323" y="104" width="31" height="31">
<path d="M328.338 128.894C324.194 128.924 321.815 124.188 324.313 120.881L325.494 119.316C326.486 118.003 326.768 116.285 326.248 114.724L325.629 112.863C324.32 108.931 328.088 105.205 332.005 106.558L333.859 107.198C335.414 107.736 337.135 107.473 338.459 106.496L340.037 105.332C343.373 102.873 348.081 105.305 348.004 109.448L347.968 111.409C347.938 113.055 348.719 114.61 350.057 115.567L351.652 116.709C355.022 119.121 354.164 124.35 350.2 125.558L348.324 126.129C346.749 126.609 345.512 127.832 345.015 129.401L344.422 131.271C343.169 135.221 337.931 136.02 335.557 132.623L334.434 131.016C333.491 129.667 331.945 128.868 330.3 128.88L328.338 128.894Z" fill="#C4C4C4"/>
</mask>
<g mask="url(#mask9)">
<path d="M328.338 128.894C324.194 128.924 321.815 124.188 324.313 120.881L325.494 119.316C326.486 118.003 326.768 116.285 326.248 114.724L325.629 112.863C324.32 108.931 328.088 105.205 332.005 106.558L333.859 107.198C335.414 107.736 337.135 107.473 338.459 106.496L340.037 105.332C343.373 102.873 348.081 105.305 348.004 109.448L347.968 111.409C347.938 113.055 348.719 114.61 350.057 115.567L351.652 116.709C355.022 119.121 354.164 124.35 350.2 125.558L348.324 126.129C346.749 126.609 345.512 127.832 345.015 129.401L344.422 131.271C343.169 135.221 337.931 136.02 335.557 132.623L334.434 131.016C333.491 129.667 331.945 128.868 330.3 128.88L328.338 128.894Z" fill="#FFD9E3"/>
<path d="M338.016 119.014L359.107 122.475L347.893 99.8277L338.016 119.014Z" fill="#F1768A"/>
<path d="M338.017 119.014L341.232 140.884L358.511 122.278L338.017 119.014Z" fill="#FFB7C2"/>
<path d="M338.016 119.014L323.182 103.974L319.264 128.435L338.016 119.014Z" fill="#FFB7C2"/>
<path d="M338.016 119.014L322.477 103.346L347.563 100.489L338.016 119.014Z" fill="#FA8B9D"/>
</g>
</svg>
