<svg width="396" height="326" viewBox="0 0 396 326" fill="none" xmlns="http://www.w3.org/2000/svg">
<mask id="mask0" mask-type="alpha" maskUnits="userSpaceOnUse" x="115" y="63" width="44" height="46">
<path d="M118.287 91.3797C114.462 89.7854 114.125 84.4969 117.717 82.4305L123.615 79.038C125.041 78.2174 125.973 76.7475 126.106 75.1072L126.654 68.3256C126.989 64.1949 131.914 62.2406 134.99 65.0185L140.038 69.5791C141.26 70.6822 142.945 71.1137 144.546 70.7331L151.166 69.1593C155.197 68.2008 158.578 72.2815 156.887 76.0647L154.11 82.2758C153.438 83.7781 153.548 85.5147 154.405 86.9198L157.947 92.7287C160.105 96.267 157.269 100.743 153.148 100.304L146.382 99.5817C144.746 99.4071 143.129 100.049 142.057 101.298L137.627 106.462C134.929 109.607 129.795 108.293 128.94 104.238L127.536 97.5806C127.196 95.9704 126.086 94.6304 124.567 93.9973L118.287 91.3797Z" fill="#C4C4C4"/>
</mask>
<g mask="url(#mask0)">
<path d="M118.287 91.3797C114.462 89.7854 114.125 84.4969 117.717 82.4305L123.615 79.038C125.041 78.2174 125.973 76.7475 126.106 75.1072L126.654 68.3256C126.989 64.1949 131.914 62.2406 134.99 65.0185L140.038 69.5791C141.26 70.6822 142.945 71.1137 144.546 70.7331L151.166 69.1593C155.197 68.2008 158.578 72.2815 156.887 76.0647L154.11 82.2758C153.438 83.7781 153.548 85.5147 154.405 86.9198L157.947 92.7287C160.105 96.267 157.269 100.743 153.148 100.304L146.382 99.5817C144.746 99.4071 143.129 100.049 142.057 101.298L137.627 106.462C134.929 109.607 129.795 108.293 128.94 104.238L127.536 97.5806C127.196 95.9704 126.086 94.6304 124.567 93.9973L118.287 91.3797Z" fill="#FFD9E3"/>
<path d="M138.336 85.6111L162.329 100.812L160.392 67.2828L138.336 85.6111Z" fill="#F1768A"/>
<path d="M138.337 85.6107L130.896 114.029L161.704 100.261L138.337 85.6107Z" fill="#FFB7C2"/>
<path d="M138.336 85.6112L128.016 59.5037L110.504 87.3825L138.336 85.6112Z" fill="#FFB7C2"/>
<path d="M138.336 85.6105L127.479 58.3692L159.645 67.92L138.336 85.6105Z" fill="#FA8B9D"/>
</g>
<mask id="mask1" mask-type="alpha" maskUnits="userSpaceOnUse" x="263" y="110" width="26" height="26">
<path d="M266.796 128.09C262.971 126.496 262.634 121.208 266.227 119.141L266.429 119.025C267.856 118.204 268.787 116.734 268.92 115.094L268.939 114.861C269.273 110.73 274.198 108.776 277.274 111.554L277.447 111.71C278.668 112.814 280.354 113.245 281.955 112.864L282.182 112.81C286.214 111.852 289.595 115.933 287.903 119.716L287.808 119.929C287.136 121.431 287.247 123.168 288.104 124.573L288.225 124.773C290.383 128.311 287.547 132.787 283.426 132.347L283.194 132.323C281.557 132.148 279.94 132.79 278.868 134.039L278.716 134.216C276.018 137.361 270.884 136.047 270.029 131.992L269.981 131.764C269.641 130.153 268.531 128.813 267.012 128.18L266.796 128.09Z" fill="#C4C4C4"/>
</mask>
<g mask="url(#mask1)">
<path d="M266.796 128.09C262.971 126.496 262.634 121.208 266.227 119.141L266.429 119.025C267.856 118.204 268.787 116.734 268.92 115.094L268.939 114.861C269.273 110.73 274.198 108.776 277.274 111.554L277.447 111.71C278.668 112.814 280.354 113.245 281.955 112.864L282.182 112.81C286.214 111.852 289.595 115.933 287.903 119.716L287.808 119.929C287.136 121.431 287.247 123.168 288.104 124.573L288.225 124.773C290.383 128.311 287.547 132.787 283.426 132.347L283.194 132.323C281.557 132.148 279.94 132.79 278.868 134.039L278.716 134.216C276.018 137.361 270.884 136.047 270.029 131.992L269.981 131.764C269.641 130.153 268.531 128.813 267.012 128.18L266.796 128.09Z" fill="#FFD9E3"/>
<path d="M276.972 122.95L292.907 133.046L291.62 110.777L276.972 122.95Z" fill="#F1768A"/>
<path d="M276.971 122.95L272.029 141.825L292.491 132.68L276.971 122.95Z" fill="#FFB7C2"/>
<path d="M276.972 122.95L270.118 105.61L258.487 124.126L276.972 122.95Z" fill="#FFB7C2"/>
<path d="M276.973 122.95L269.762 104.857L291.125 111.201L276.973 122.95Z" fill="#FA8B9D"/>
</g>
<mask id="mask2" mask-type="alpha" maskUnits="userSpaceOnUse" x="190" y="65" width="59" height="60">
<path d="M227.08 66.5473C230.418 64.0909 235.123 66.5279 235.043 70.6713L234.812 82.5714C234.78 84.2168 235.56 85.7725 236.897 86.7316L246.569 93.6682C249.937 96.0834 249.073 101.312 245.108 102.516L233.719 105.973C232.144 106.451 230.905 107.674 230.407 109.242L226.798 120.584C225.542 124.533 220.303 125.328 217.932 121.928L211.124 112.165C210.183 110.815 208.638 110.015 206.992 110.025L195.09 110.098C190.946 110.124 188.571 105.386 191.072 102.082L198.254 92.5899C199.246 91.2776 199.53 89.5607 199.012 87.9987L195.264 76.7017C193.959 72.7684 197.731 69.0462 201.647 70.403L212.893 74.3C214.448 74.8388 216.169 74.578 217.494 73.6025L227.08 66.5473Z" fill="#C4C4C4"/>
</mask>
<g mask="url(#mask2)">
<path d="M227.08 66.5473C230.418 64.0909 235.123 66.5279 235.043 70.6713L234.812 82.5714C234.78 84.2168 235.56 85.7725 236.897 86.7316L246.569 93.6682C249.937 96.0834 249.073 101.312 245.108 102.516L233.719 105.973C232.144 106.451 230.905 107.674 230.407 109.242L226.798 120.584C225.542 124.533 220.303 125.328 217.932 121.928L211.124 112.165C210.183 110.815 208.638 110.015 206.992 110.025L195.09 110.098C190.946 110.124 188.571 105.386 191.072 102.082L198.254 92.5899C199.246 91.2776 199.53 89.5607 199.012 87.9987L195.264 76.7017C193.959 72.7684 197.731 69.0462 201.647 70.403L212.893 74.3C214.448 74.8388 216.169 74.578 217.494 73.6025L227.08 66.5473Z" fill="#FFD9E3"/>
<path d="M218.16 93.52L186.151 109.565L223.632 129.255L218.16 93.52Z" fill="#F1768A"/>
<path d="M218.161 93.5203L192.294 67.0192L187.153 109.247L218.161 93.5203Z" fill="#FFB7C2"/>
<path d="M218.161 93.5204L253.07 99.3319L234.329 62.3014L218.161 93.5204Z" fill="#FFB7C2"/>
<path d="M218.161 93.5196L254.643 99.489L223.428 128.033L218.161 93.5196Z" fill="#FA8B9D"/>
</g>
<mask id="mask3" mask-type="alpha" maskUnits="userSpaceOnUse" x="100" y="214" width="46" height="45">
<path d="M107.945 220.664C107.393 216.557 111.79 213.599 115.386 215.66L121.479 219.151C122.907 219.969 124.646 220.032 126.13 219.32L132.461 216.279C136.196 214.485 140.368 217.753 139.519 221.81L138.082 228.684C137.745 230.295 138.222 231.968 139.358 233.159L144.207 238.24C147.067 241.239 145.248 246.216 141.128 246.663L134.146 247.42C132.51 247.597 131.066 248.568 130.284 250.017L126.95 256.198C124.982 259.845 119.687 259.653 117.989 255.873L115.111 249.466C114.436 247.965 113.067 246.892 111.448 246.596L104.539 245.335C100.462 244.591 99.0083 239.495 102.079 236.712L107.282 231.995C108.502 230.89 109.099 229.255 108.88 227.624L107.945 220.664Z" fill="#C4C4C4"/>
</mask>
<g mask="url(#mask3)">
<path d="M107.945 220.664C107.393 216.557 111.79 213.599 115.386 215.66L121.479 219.151C122.907 219.969 124.646 220.032 126.13 219.32L132.461 216.279C136.196 214.485 140.368 217.753 139.519 221.81L138.082 228.684C137.745 230.295 138.222 231.968 139.358 233.159L144.207 238.24C147.067 241.239 145.248 246.216 141.128 246.663L134.146 247.42C132.51 247.597 131.066 248.568 130.284 250.017L126.95 256.198C124.982 259.845 119.687 259.653 117.989 255.873L115.111 249.466C114.436 247.965 113.067 246.892 111.448 246.596L104.539 245.335C100.462 244.591 99.0083 239.495 102.079 236.712L107.282 231.995C108.502 230.89 109.099 229.255 108.88 227.624L107.945 220.664Z" fill="#FFD9E3"/>
<path d="M123.221 235.343L122.18 264.045L150.472 245.258L123.221 235.343Z" fill="#F1768A"/>
<path d="M123.22 235.344L94.6093 243.336L122.341 263.219L123.22 235.344Z" fill="#FFB7C2"/>
<path d="M123.22 235.343L140.756 213.018L107.482 211.941L123.22 235.343Z" fill="#FFB7C2"/>
<path d="M123.22 235.343L141.473 211.973L149.534 244.931L123.22 235.343Z" fill="#FA8B9D"/>
</g>
<mask id="mask4" mask-type="alpha" maskUnits="userSpaceOnUse" x="41" y="92" width="63" height="61">
<path d="M52.7665 98.2071C52.2146 94.0998 56.6119 91.1425 60.2076 93.2027L71.3598 99.5924C72.7877 100.41 74.5268 100.474 76.0102 99.7611L87.5962 94.1966C91.3318 92.4024 95.5032 95.6706 94.655 99.7271L92.0243 112.308C91.6875 113.919 92.1649 115.592 93.3009 116.783L102.173 126.082C105.034 129.081 103.215 134.058 99.0948 134.505L86.3167 135.89C84.6807 136.068 83.2367 137.039 82.4553 138.487L76.3528 149.799C74.3852 153.446 69.0895 153.254 67.3914 149.474L62.1248 137.75C61.4505 136.248 60.0807 135.175 58.4618 134.88L45.8178 132.571C41.741 131.827 40.2873 126.731 43.3578 123.948L52.8809 115.316C54.1002 114.211 54.6976 112.577 54.4784 110.946L52.7665 98.2071Z" fill="#C4C4C4"/>
</mask>
<g mask="url(#mask4)">
<path d="M52.7665 98.2071C52.2146 94.0998 56.6119 91.1425 60.2076 93.2027L71.3598 99.5924C72.7877 100.41 74.5268 100.474 76.0102 99.7611L87.5962 94.1966C91.3318 92.4024 95.5032 95.6706 94.655 99.7271L92.0243 112.308C91.6875 113.919 92.1649 115.592 93.3009 116.783L102.173 126.082C105.034 129.081 103.215 134.058 99.0948 134.505L86.3167 135.89C84.6807 136.068 83.2367 137.039 82.4553 138.487L76.3528 149.799C74.3852 153.446 69.0895 153.254 67.3914 149.474L62.1248 137.75C61.4505 136.248 60.0807 135.175 58.4618 134.88L45.8178 132.571C41.741 131.827 40.2873 126.731 43.3578 123.948L52.8809 115.316C54.1002 114.211 54.6976 112.577 54.4784 110.946L52.7665 98.2071Z" fill="#FFD9E3"/>
<path d="M72.9409 120.171L71.5935 157.332L108.223 133.008L72.9409 120.171Z" fill="#F1768A"/>
<path d="M72.9411 120.172L35.8993 130.519L71.8039 156.261L72.9411 120.172Z" fill="#FFB7C2"/>
<path d="M72.9413 120.171L95.6451 91.2678L52.5651 89.873L72.9413 120.171Z" fill="#FFB7C2"/>
<path d="M72.9405 120.172L96.5726 89.9143L107.008 132.585L72.9405 120.172Z" fill="#FA8B9D"/>
</g>
<mask id="mask5" mask-type="alpha" maskUnits="userSpaceOnUse" x="188" y="198" width="61" height="63">
<path d="M244.867 247.193C246.348 251.063 242.748 254.952 238.775 253.773L226.453 250.118C224.875 249.65 223.168 249.988 221.888 251.022L211.891 259.101C208.668 261.705 203.857 259.483 203.75 255.34L203.419 242.492C203.377 240.847 202.528 239.328 201.148 238.43L190.376 231.419C186.903 229.158 187.53 223.896 191.437 222.514L203.554 218.229C205.106 217.68 206.288 216.403 206.716 214.814L210.055 202.402C211.132 198.401 216.33 197.371 218.851 200.659L226.672 210.86C227.673 212.166 229.253 212.895 230.896 212.811L243.732 212.152C247.871 211.939 250.457 216.564 248.108 219.979L240.824 230.568C239.891 231.924 239.685 233.652 240.273 235.189L244.867 247.193Z" fill="#C4C4C4"/>
</mask>
<g mask="url(#mask5)">
<path d="M244.867 247.193C246.348 251.063 242.748 254.952 238.775 253.773L226.453 250.118C224.875 249.65 223.168 249.988 221.888 251.022L211.891 259.101C208.668 261.705 203.857 259.483 203.75 255.34L203.419 242.492C203.377 240.847 202.528 239.328 201.148 238.43L190.376 231.419C186.903 229.158 187.53 223.896 191.437 222.514L203.554 218.229C205.106 217.68 206.288 216.403 206.716 214.814L210.055 202.402C211.132 198.401 216.33 197.371 218.851 200.659L226.672 210.86C227.673 212.166 229.253 212.895 230.896 212.811L243.732 212.152C247.871 211.939 250.457 216.564 248.108 219.979L240.824 230.568C239.891 231.924 239.685 233.652 240.273 235.189L244.867 247.193Z" fill="#FFD9E3"/>
<path d="M220.184 230.454L212.955 193.978L182.896 226.069L220.184 230.454Z" fill="#F1768A"/>
<path d="M220.185 230.453L253.857 211.87L212.998 195.068L220.185 230.453Z" fill="#FFB7C2"/>
<path d="M220.185 230.454L204.731 263.801L246.979 255.258L220.185 230.454Z" fill="#FFB7C2"/>
<path d="M220.183 230.453L204.138 265.332L184.175 226.201L220.183 230.453Z" fill="#FA8B9D"/>
</g>
<mask id="mask6" mask-type="alpha" maskUnits="userSpaceOnUse" x="112" y="118" width="88" height="86">
<path d="M154.649 120.994C156.828 117.469 162.104 117.973 163.576 121.847L171.239 142.01C171.824 143.548 173.128 144.7 174.727 145.091L195.682 150.209C199.707 151.192 200.858 156.365 197.629 158.962L180.821 172.481C179.538 173.513 178.846 175.109 178.968 176.75L180.576 198.261C180.885 202.393 176.321 205.086 172.853 202.818L154.802 191.01C153.424 190.109 151.692 189.943 150.169 190.567L130.208 198.744C126.373 200.315 122.402 196.806 123.488 192.807L129.14 171.99C129.571 170.402 129.193 168.703 128.129 167.447L114.184 150.99C111.505 147.828 113.615 142.967 117.754 142.764L139.299 141.706C140.942 141.626 142.441 140.741 143.306 139.341L154.649 120.994Z" fill="#C4C4C4"/>
</mask>
<g mask="url(#mask6)">
<path d="M154.649 120.994C156.828 117.469 162.104 117.973 163.576 121.847L171.239 142.01C171.824 143.548 173.128 144.7 174.727 145.091L195.682 150.209C199.707 151.192 200.858 156.365 197.629 158.962L180.821 172.481C179.538 173.513 178.846 175.109 178.968 176.75L180.576 198.261C180.885 202.393 176.321 205.086 172.853 202.818L154.802 191.01C153.424 190.109 151.692 189.943 150.169 190.567L130.208 198.744C126.373 200.315 122.402 196.806 123.488 192.807L129.14 171.99C129.571 170.402 129.193 168.703 128.129 167.447L114.184 150.99C111.505 147.828 113.615 142.967 117.754 142.764L139.299 141.706C140.942 141.626 142.441 140.741 143.306 139.341L154.649 120.994Z" fill="#FFD9E3"/>
<path d="M155.061 163.84L122.063 201.195L180.698 207.143L155.061 163.84Z" fill="#F1768A"/>
<path d="M155.059 163.84L107.882 143.06L123.19 200.264L155.059 163.84Z" fill="#FFB7C2"/>
<path d="M155.06 163.839L203.162 153.201L159.715 115.121L155.06 163.839Z" fill="#FFB7C2"/>
<path d="M155.061 163.839L205.276 152.587L179.8 205.671L155.061 163.839Z" fill="#FA8B9D"/>
</g>
<mask id="mask7" mask-type="alpha" maskUnits="userSpaceOnUse" x="270" y="136" width="88" height="86">
<path d="M312.384 139.195C314.563 135.67 319.838 136.174 321.31 140.048L328.974 160.211C329.558 161.75 330.863 162.902 332.461 163.292L353.416 168.41C357.442 169.393 358.593 174.566 355.363 177.163L338.555 190.683C337.273 191.714 336.58 193.31 336.703 194.951L338.311 216.462C338.62 220.595 334.056 223.288 330.588 221.019L312.536 209.211C311.159 208.31 309.426 208.145 307.904 208.768L287.943 216.945C284.108 218.516 280.136 215.007 281.222 211.008L286.874 190.191C287.305 188.603 286.927 186.904 285.863 185.649L271.919 169.191C269.24 166.029 271.349 161.168 275.488 160.965L297.033 159.907C298.677 159.827 300.175 158.942 301.041 157.543L312.384 139.195Z" fill="#C4C4C4"/>
</mask>
<g mask="url(#mask7)">
<path d="M312.384 139.195C314.563 135.67 319.838 136.174 321.31 140.048L328.974 160.211C329.558 161.75 330.863 162.902 332.461 163.292L353.416 168.41C357.442 169.393 358.593 174.566 355.363 177.163L338.555 190.683C337.273 191.714 336.58 193.31 336.703 194.951L338.311 216.462C338.62 220.595 334.056 223.288 330.588 221.019L312.536 209.211C311.159 208.31 309.426 208.145 307.904 208.768L287.943 216.945C284.108 218.516 280.136 215.007 281.222 211.008L286.874 190.191C287.305 188.603 286.927 186.904 285.863 185.649L271.919 169.191C269.24 166.029 271.349 161.168 275.488 160.965L297.033 159.907C298.677 159.827 300.175 158.942 301.041 157.543L312.384 139.195Z" fill="#FFD9E3"/>
<path d="M312.795 182.041L279.798 219.396L338.433 225.344L312.795 182.041Z" fill="#F1768A"/>
<path d="M312.793 182.041L265.616 161.262L280.924 218.465L312.793 182.041Z" fill="#FFB7C2"/>
<path d="M312.795 182.041L360.896 171.402L317.449 133.322L312.795 182.041Z" fill="#FFB7C2"/>
<path d="M312.795 182.04L363.01 170.788L337.535 223.872L312.795 182.04Z" fill="#FA8B9D"/>
</g>
<mask id="mask8" mask-type="alpha" maskUnits="userSpaceOnUse" x="223" y="146" width="31" height="31">
<path d="M248.679 152.314C252.823 152.277 255.211 157.007 252.72 160.319L251.542 161.887C250.553 163.202 250.274 164.92 250.797 166.48L251.42 168.34C252.736 172.269 248.975 176.003 245.055 174.657L243.201 174.021C241.644 173.486 239.924 173.752 238.602 174.732L237.026 175.899C233.695 178.365 228.983 175.942 229.051 171.798L229.083 169.837C229.11 168.192 228.326 166.638 226.986 165.683L225.389 164.545C222.014 162.14 222.862 156.909 226.824 155.693L228.699 155.118C230.272 154.635 231.507 153.409 232.002 151.84L232.591 149.969C233.835 146.016 239.072 145.207 241.453 148.599L242.579 150.204C243.525 151.551 245.072 152.347 246.718 152.332L248.679 152.314Z" fill="#C4C4C4"/>
</mask>
<g mask="url(#mask8)">
<path d="M248.679 152.314C252.823 152.277 255.211 157.007 252.72 160.319L251.542 161.887C250.553 163.202 250.274 164.92 250.797 166.48L251.42 168.34C252.736 172.269 248.975 176.003 245.055 174.657L243.201 174.021C241.644 173.486 239.924 173.752 238.602 174.732L237.026 175.899C233.695 178.365 228.983 175.942 229.051 171.798L229.083 169.837C229.11 168.192 228.326 166.638 226.986 165.683L225.389 164.545C222.014 162.14 222.862 156.909 226.824 155.693L228.699 155.118C230.272 154.635 231.507 153.409 232.002 151.84L232.591 149.969C233.835 146.016 239.072 145.207 241.453 148.599L242.579 150.204C243.525 151.551 245.072 152.347 246.718 152.332L248.679 152.314Z" fill="#FFD9E3"/>
<path d="M239.021 162.214L217.924 158.793L229.182 181.419L239.021 162.214Z" fill="#F1768A"/>
<path d="M239.02 162.213L235.763 140.35L218.519 158.989L239.02 162.213Z" fill="#FFB7C2"/>
<path d="M239.02 162.213L253.883 177.224L257.754 152.755L239.02 162.213Z" fill="#FFB7C2"/>
<path d="M239.022 162.214L254.591 177.851L229.511 180.757L239.022 162.214Z" fill="#FA8B9D"/>
</g>
<mask id="mask9" mask-type="alpha" maskUnits="userSpaceOnUse" x="42" y="190" width="32" height="32">
<path d="M68.1905 196.785C72.3345 196.747 74.7228 201.478 72.2321 204.79L71.0534 206.357C70.0643 207.673 69.7857 209.39 70.3085 210.951L70.9314 212.81C72.2478 216.74 68.4869 220.473 64.5672 219.128L62.7123 218.491C61.1557 217.957 59.436 218.223 58.1135 219.202L56.5374 220.369C53.207 222.836 48.4943 220.412 48.5625 216.269L48.5948 214.308C48.6219 212.663 47.8376 211.109 46.4975 210.154L44.9005 209.016C41.5258 206.61 42.374 201.379 46.3359 200.164L48.2108 199.589C49.7841 199.106 51.0191 197.88 51.5134 196.31L52.1025 194.44C53.3472 190.487 58.5842 189.677 60.9645 193.07L62.091 194.675C63.0362 196.022 64.5838 196.818 66.2294 196.803L68.1905 196.785Z" fill="#C4C4C4"/>
</mask>
<g mask="url(#mask9)">
<path d="M68.1905 196.785C72.3345 196.747 74.7228 201.478 72.2321 204.79L71.0534 206.357C70.0643 207.673 69.7857 209.39 70.3085 210.951L70.9314 212.81C72.2478 216.74 68.4869 220.473 64.5672 219.128L62.7123 218.491C61.1557 217.957 59.436 218.223 58.1135 219.202L56.5374 220.369C53.207 222.836 48.4943 220.412 48.5625 216.269L48.5948 214.308C48.6219 212.663 47.8376 211.109 46.4975 210.154L44.9005 209.016C41.5258 206.61 42.374 201.379 46.3359 200.164L48.2108 199.589C49.7841 199.106 51.0191 197.88 51.5134 196.31L52.1025 194.44C53.3472 190.487 58.5842 189.677 60.9645 193.07L62.091 194.675C63.0362 196.022 64.5838 196.818 66.2294 196.803L68.1905 196.785Z" fill="#FFD9E3"/>
<path d="M58.5327 206.684L37.4359 203.264L48.6938 225.889L58.5327 206.684Z" fill="#F1768A"/>
<path d="M58.5322 206.684L55.2746 184.821L38.0312 203.46L58.5322 206.684Z" fill="#FFB7C2"/>
<path d="M58.5319 206.684L73.3951 221.695L77.2652 197.226L58.5319 206.684Z" fill="#FFB7C2"/>
<path d="M58.5333 206.684L74.1024 222.321L49.0223 225.227L58.5333 206.684Z" fill="#FA8B9D"/>
</g>
</svg>
