<svg width="426" height="405" viewBox="0 0 426 405" fill="none" xmlns="http://www.w3.org/2000/svg">
<mask id="mask0" mask-type="alpha" maskUnits="userSpaceOnUse" x="107" y="132" width="45" height="45">
<path d="M112.32 165.979C108.176 165.945 105.87 161.174 108.417 157.905L112.6 152.539C113.612 151.241 113.92 149.529 113.424 147.959L111.375 141.472C110.127 137.52 113.952 133.852 117.848 135.265L124.244 137.585C125.791 138.146 127.515 137.91 128.854 136.954L134.391 133C137.764 130.591 142.434 133.096 142.294 137.238L142.064 144.038C142.008 145.682 142.766 147.249 144.089 148.227L149.56 152.271C152.893 154.735 151.954 159.95 147.972 161.097L141.434 162.98C139.853 163.435 138.597 164.639 138.075 166.2L135.92 172.654C134.607 176.584 129.357 177.303 127.035 173.87L123.224 168.234C122.302 166.871 120.769 166.048 119.123 166.035L112.32 165.979Z" fill="#C4C4C4"/>
</mask>
<g mask="url(#mask0)">
<path d="M112.32 165.979C108.176 165.945 105.87 161.174 108.417 157.905L112.6 152.539C113.612 151.241 113.92 149.529 113.424 147.959L111.375 141.472C110.127 137.52 113.952 133.852 117.848 135.265L124.244 137.585C125.791 138.146 127.515 137.91 128.854 136.954L134.391 133C137.764 130.591 142.434 133.096 142.294 137.238L142.064 144.038C142.008 145.682 142.766 147.249 144.089 148.227L149.56 152.271C152.893 154.735 151.954 159.95 147.972 161.097L141.434 162.98C139.853 163.435 138.597 164.639 138.075 166.2L135.92 172.654C134.607 176.584 129.357 177.303 127.035 173.87L123.224 168.234C122.302 166.871 120.769 166.048 119.123 166.035L112.32 165.979Z" fill="#FFD9E3"/>
<path d="M128.713 153.075L156.667 158.105L142.229 127.782L128.713 153.075Z" fill="#F1768A"/>
<path d="M128.713 153.075L132.538 182.202L155.879 157.831L128.713 153.075Z" fill="#FFB7C2"/>
<path d="M128.713 153.074L109.309 132.787L103.604 165.211L128.713 153.074Z" fill="#FFB7C2"/>
<path d="M128.713 153.075L108.385 131.939L141.777 128.654L128.713 153.075Z" fill="#FA8B9D"/>
</g>
<mask id="mask1" mask-type="alpha" maskUnits="userSpaceOnUse" x="258" y="123" width="27" height="26">
<path d="M263.709 143.972C259.565 143.938 257.259 139.167 259.807 135.898L259.951 135.714C260.962 134.416 261.271 132.703 260.775 131.134L260.704 130.911C259.456 126.959 263.281 123.292 267.177 124.705L267.397 124.784C268.944 125.346 270.668 125.109 272.007 124.153L272.197 124.017C275.57 121.609 280.24 124.113 280.1 128.255L280.092 128.489C280.036 130.133 280.794 131.7 282.117 132.678L282.305 132.817C285.638 135.281 284.699 140.496 280.717 141.643L280.492 141.707C278.911 142.163 277.655 143.367 277.133 144.928L277.059 145.15C275.746 149.08 270.496 149.799 268.175 146.366L268.044 146.173C267.122 144.809 265.589 143.987 263.943 143.974L263.709 143.972Z" fill="#C4C4C4"/>
</mask>
<g mask="url(#mask1)">
<path d="M263.709 143.972C259.565 143.938 257.259 139.167 259.807 135.898L259.951 135.714C260.962 134.416 261.271 132.703 260.775 131.134L260.704 130.911C259.456 126.959 263.281 123.292 267.177 124.705L267.397 124.784C268.944 125.346 270.668 125.109 272.007 124.153L272.197 124.017C275.57 121.609 280.24 124.113 280.1 128.255L280.092 128.489C280.036 130.133 280.794 131.7 282.117 132.678L282.305 132.817C285.638 135.281 284.699 140.496 280.717 141.643L280.492 141.707C278.911 142.163 277.655 143.367 277.133 144.928L277.059 145.15C275.746 149.08 270.496 149.799 268.175 146.366L268.044 146.173C267.122 144.809 265.589 143.987 263.943 143.974L263.709 143.972Z" fill="#FFD9E3"/>
<path d="M271.194 135.374L289.76 138.715L280.171 118.575L271.194 135.374Z" fill="#F1768A"/>
<path d="M271.196 135.373L273.737 154.718L289.239 138.532L271.196 135.373Z" fill="#FFB7C2"/>
<path d="M271.195 135.373L258.307 121.899L254.518 143.434L271.195 135.373Z" fill="#FFB7C2"/>
<path d="M271.194 135.373L257.693 121.335L279.871 119.154L271.194 135.373Z" fill="#FA8B9D"/>
</g>
<mask id="mask2" mask-type="alpha" maskUnits="userSpaceOnUse" x="176" y="99" width="60" height="59">
<path d="M203.715 101.951C205.88 98.4171 211.157 98.8996 212.645 102.767L216.919 113.876C217.51 115.412 218.819 116.559 220.419 116.943L231.993 119.719C236.023 120.686 237.195 125.854 233.976 128.465L224.732 135.962C223.454 136.999 222.768 138.598 222.897 140.239L223.833 152.104C224.158 156.235 219.606 158.947 216.128 156.693L206.141 150.218C204.76 149.322 203.027 149.164 201.507 149.794L190.511 154.351C186.683 155.937 182.697 152.445 183.767 148.441L186.838 136.942C187.263 135.352 186.878 133.655 185.809 132.404L178.078 123.354C175.386 120.203 177.476 115.333 181.614 115.113L193.5 114.481C195.143 114.394 196.638 113.504 197.498 112.1L203.715 101.951Z" fill="#C4C4C4"/>
</mask>
<g mask="url(#mask2)">
<path d="M203.715 101.951C205.88 98.4171 211.157 98.8996 212.645 102.767L216.919 113.876C217.51 115.412 218.819 116.559 220.419 116.943L231.993 119.719C236.023 120.686 237.195 125.854 233.976 128.465L224.732 135.962C223.454 136.999 222.768 138.598 222.897 140.239L223.833 152.104C224.158 156.235 219.606 158.947 216.128 156.693L206.141 150.218C204.76 149.322 203.027 149.164 201.507 149.794L190.511 154.351C186.683 155.937 182.697 152.445 183.767 148.441L186.838 136.942C187.263 135.352 186.878 133.655 185.809 132.404L178.078 123.354C175.386 120.203 177.476 115.333 181.614 115.113L193.5 114.481C195.143 114.394 196.638 113.504 197.498 112.1L203.715 101.951Z" fill="#FFD9E3"/>
<path d="M205.625 130.296L182.031 157.227L224.17 161.329L205.625 130.296Z" fill="#F1768A"/>
<path d="M205.625 130.296L171.674 115.507L182.838 156.555L205.625 130.296Z" fill="#FFB7C2"/>
<path d="M205.625 130.296L240.149 122.513L208.826 95.2845L205.625 130.296Z" fill="#FFB7C2"/>
<path d="M205.626 130.296L241.666 122.066L223.521 160.275L205.626 130.296Z" fill="#FA8B9D"/>
</g>
<mask id="mask3" mask-type="alpha" maskUnits="userSpaceOnUse" x="150" y="274" width="45" height="46">
<path d="M151.496 289.617C149.435 286.022 152.393 281.624 156.5 282.176L163.46 283.112C165.091 283.331 166.726 282.734 167.831 281.514L172.548 276.311C175.331 273.24 180.427 274.694 181.171 278.771L182.432 285.68C182.728 287.299 183.801 288.669 185.302 289.343L191.709 292.221C195.489 293.919 195.681 299.215 192.034 301.182L185.853 304.517C184.404 305.298 183.433 306.742 183.256 308.378L182.498 315.36C182.052 319.48 177.074 321.299 174.076 318.439L168.995 313.59C167.804 312.454 166.131 311.977 164.52 312.314L157.645 313.751C153.589 314.599 150.321 310.428 152.115 306.692L155.156 300.362C155.868 298.878 155.805 297.139 154.987 295.711L151.496 289.617Z" fill="#C4C4C4"/>
</mask>
<g mask="url(#mask3)">
<path d="M151.496 289.617C149.435 286.022 152.393 281.624 156.5 282.176L163.46 283.112C165.091 283.331 166.726 282.734 167.831 281.514L172.548 276.311C175.331 273.24 180.427 274.694 181.171 278.771L182.432 285.68C182.728 287.299 183.801 288.669 185.302 289.343L191.709 292.221C195.489 293.919 195.681 299.215 192.034 301.182L185.853 304.517C184.404 305.298 183.433 306.742 183.256 308.378L182.498 315.36C182.052 319.48 177.074 321.299 174.076 318.439L168.995 313.59C167.804 312.454 166.131 311.977 164.52 312.314L157.645 313.751C153.589 314.599 150.321 310.428 152.115 306.692L155.156 300.362C155.868 298.878 155.805 297.139 154.987 295.711L151.496 289.617Z" fill="#FFD9E3"/>
<path d="M171.179 297.452L181.039 324.428L200.157 296.358L171.179 297.452Z" fill="#F1768A"/>
<path d="M171.179 297.452L147.695 315.644L180.877 323.601L171.179 297.452Z" fill="#FFB7C2"/>
<path d="M171.179 297.452L179.001 270.163L147.778 281.714L171.179 297.452Z" fill="#FFB7C2"/>
<path d="M171.179 297.452L179.271 268.924L199.166 296.409L171.179 297.452Z" fill="#FA8B9D"/>
</g>
<mask id="mask4" mask-type="alpha" maskUnits="userSpaceOnUse" x="53" y="178" width="61" height="63">
<path d="M54.2113 197.012C52.1511 193.416 55.1085 189.019 59.2157 189.571L71.9541 191.283C73.5851 191.502 75.2195 190.905 76.3248 189.686L84.9567 180.163C87.7399 177.092 92.8358 178.546 93.58 182.623L95.8882 195.267C96.1837 196.886 97.2569 198.256 98.758 198.93L110.482 204.197C114.263 205.895 114.455 211.191 110.807 213.158L99.4956 219.26C98.0472 220.042 97.0761 221.486 96.8987 223.122L95.5128 235.9C95.0659 240.02 90.0887 241.839 87.0904 238.978L77.7911 230.106C76.6004 228.97 74.927 228.492 73.3162 228.829L60.7353 231.46C56.6789 232.308 53.4107 228.136 55.2049 224.401L60.7695 212.815C61.482 211.331 61.4189 209.592 60.6008 208.165L54.2113 197.012Z" fill="#C4C4C4"/>
</mask>
<g mask="url(#mask4)">
<path d="M54.2113 197.012C52.1511 193.416 55.1085 189.019 59.2157 189.571L71.9541 191.283C73.5851 191.502 75.2195 190.905 76.3248 189.686L84.9567 180.163C87.7399 177.092 92.8358 178.546 93.58 182.623L95.8882 195.267C96.1837 196.886 97.2569 198.256 98.758 198.93L110.482 204.197C114.263 205.895 114.455 211.191 110.807 213.158L99.4956 219.26C98.0472 220.042 97.0761 221.486 96.8987 223.122L95.5128 235.9C95.0659 240.02 90.0887 241.839 87.0904 238.978L77.7911 230.106C76.6004 228.97 74.927 228.492 73.3162 228.829L60.7353 231.46C56.6789 232.308 53.4107 228.136 55.2049 224.401L60.7695 212.815C61.482 211.331 61.4189 209.592 60.6008 208.165L54.2113 197.012Z" fill="#FFD9E3"/>
<path d="M81.1796 209.747L93.9462 244.672L118.697 208.33L81.1796 209.747Z" fill="#F1768A"/>
<path d="M81.1794 209.746L50.7751 233.299L93.7367 243.6L81.1794 209.746Z" fill="#FFB7C2"/>
<path d="M81.1798 209.746L91.3071 174.415L50.882 189.37L81.1798 209.746Z" fill="#FFB7C2"/>
<path d="M81.1795 209.747L91.6559 172.811L117.413 208.396L81.1795 209.747Z" fill="#FA8B9D"/>
</g>
<mask id="mask5" mask-type="alpha" maskUnits="userSpaceOnUse" x="227" y="228" width="63" height="61">
<path d="M288.313 262.552C291.145 265.578 289.277 270.537 285.153 270.944L272.362 272.205C270.724 272.366 269.271 273.323 268.475 274.764L262.263 286.016C260.26 289.644 254.966 289.4 253.305 285.604L248.153 273.828C247.493 272.321 246.134 271.234 244.518 270.923L231.897 268.492C227.828 267.708 226.424 262.598 229.521 259.845L239.128 251.306C240.358 250.213 240.971 248.584 240.768 246.951L239.18 234.197C238.668 230.084 243.094 227.17 246.67 229.265L257.759 235.763C259.179 236.595 260.917 236.675 262.408 235.977L274.047 230.526C277.8 228.768 281.94 232.076 281.052 236.124L278.299 248.679C277.946 250.287 278.407 251.965 279.532 253.166L288.313 262.552Z" fill="#C4C4C4"/>
</mask>
<g mask="url(#mask5)">
<path d="M288.313 262.552C291.145 265.578 289.277 270.537 285.153 270.944L272.362 272.205C270.724 272.366 269.271 273.323 268.475 274.764L262.263 286.016C260.26 289.644 254.966 289.4 253.305 285.604L248.153 273.828C247.493 272.321 246.134 271.234 244.518 270.923L231.897 268.492C227.828 267.708 226.424 262.598 229.521 259.845L239.128 251.306C240.358 250.213 240.971 248.584 240.768 246.951L239.18 234.197C238.668 230.084 243.094 227.17 246.67 229.265L257.759 235.763C259.179 236.595 260.917 236.675 262.408 235.977L274.047 230.526C277.8 228.768 281.94 232.076 281.052 236.124L278.299 248.679C277.946 250.287 278.407 251.965 279.532 253.166L288.313 262.552Z" fill="#FFD9E3"/>
<path d="M259.141 256.356L238.69 225.3L222.953 266.357L259.141 256.356Z" fill="#F1768A"/>
<path d="M259.141 256.356L283.319 226.446L239.14 226.294L259.141 256.356Z" fill="#FFB7C2"/>
<path d="M259.141 256.357L257.404 293.07L293.31 269.225L259.141 256.357Z" fill="#FFB7C2"/>
<path d="M259.14 256.357L257.432 294.711L224.186 265.999L259.14 256.357Z" fill="#FA8B9D"/>
</g>
<mask id="mask6" mask-type="alpha" maskUnits="userSpaceOnUse" x="128" y="175" width="84" height="88">
<path d="M157.163 179.694C157.852 175.608 162.928 174.085 165.752 177.118L180.454 192.902C181.576 194.106 183.218 194.681 184.846 194.44L206.183 191.278C210.283 190.67 213.299 195.027 211.288 198.65L200.819 217.51C200.021 218.949 199.981 220.689 200.714 222.162L210.315 241.478C212.16 245.189 208.948 249.404 204.881 248.611L183.709 244.483C182.094 244.168 180.427 244.668 179.252 245.82L163.848 260.92C160.889 263.822 155.888 262.07 155.385 257.956L152.769 236.545C152.569 234.912 151.579 233.481 150.12 232.719L130.999 222.736C127.325 220.818 127.445 215.52 131.202 213.771L150.757 204.666C152.249 203.972 153.304 202.587 153.577 200.965L157.163 179.694Z" fill="#C4C4C4"/>
</mask>
<g mask="url(#mask6)">
<path d="M157.163 179.694C157.852 175.608 162.928 174.085 165.752 177.118L180.454 192.902C181.576 194.106 183.218 194.681 184.846 194.44L206.183 191.278C210.283 190.67 213.299 195.027 211.288 198.65L200.819 217.51C200.021 218.949 199.981 220.689 200.714 222.162L210.315 241.478C212.16 245.189 208.948 249.404 204.881 248.611L183.709 244.483C182.094 244.168 180.427 244.668 179.252 245.82L163.848 260.92C160.889 263.822 155.888 262.07 155.385 257.956L152.769 236.545C152.569 234.912 151.579 233.481 150.12 232.719L130.999 222.736C127.325 220.818 127.445 215.52 131.202 213.771L150.757 204.666C152.249 203.972 153.304 202.587 153.577 200.965L157.163 179.694Z" fill="#FFD9E3"/>
<path d="M173.702 219.221L157.229 266.262L213.778 249.658L173.702 219.221Z" fill="#F1768A"/>
<path d="M173.702 219.221L122.172 217.768L157.923 264.974L173.702 219.221Z" fill="#FFB7C2"/>
<path d="M173.702 219.221L214.24 191.228L159.64 172.345L173.702 219.221Z" fill="#FFB7C2"/>
<path d="M173.701 219.221L215.965 189.863L212.39 248.635L173.701 219.221Z" fill="#FA8B9D"/>
</g>
<mask id="mask7" mask-type="alpha" maskUnits="userSpaceOnUse" x="281" y="132" width="84" height="88">
<path d="M310.116 137.065C310.805 132.979 315.881 131.456 318.705 134.489L333.407 150.273C334.529 151.477 336.171 152.053 337.799 151.811L359.136 148.649C363.236 148.041 366.253 152.398 364.241 156.021L353.772 174.881C352.974 176.32 352.934 178.06 353.667 179.533L363.268 198.849C365.113 202.56 361.901 206.776 357.834 205.982L336.662 201.854C335.047 201.539 333.38 202.039 332.205 203.191L316.801 218.292C313.842 221.193 308.841 219.441 308.338 215.327L305.722 193.916C305.522 192.283 304.532 190.852 303.073 190.09L283.952 180.107C280.278 178.189 280.398 172.891 284.155 171.142L303.71 162.037C305.202 161.343 306.257 159.959 306.53 158.336L310.116 137.065Z" fill="#C4C4C4"/>
</mask>
<g mask="url(#mask7)">
<path d="M310.116 137.065C310.805 132.979 315.881 131.456 318.705 134.489L333.407 150.273C334.529 151.477 336.171 152.053 337.799 151.811L359.136 148.649C363.236 148.041 366.253 152.398 364.241 156.021L353.772 174.881C352.974 176.32 352.934 178.06 353.667 179.533L363.268 198.849C365.113 202.56 361.901 206.776 357.834 205.982L336.662 201.854C335.047 201.539 333.38 202.039 332.205 203.191L316.801 218.292C313.842 221.193 308.841 219.441 308.338 215.327L305.722 193.916C305.522 192.283 304.532 190.852 303.073 190.09L283.952 180.107C280.278 178.189 280.398 172.891 284.155 171.142L303.71 162.037C305.202 161.343 306.257 159.959 306.53 158.336L310.116 137.065Z" fill="#FFD9E3"/>
<path d="M326.655 176.592L310.182 223.633L366.731 207.029L326.655 176.592Z" fill="#F1768A"/>
<path d="M326.655 176.592L275.125 175.139L310.876 222.345L326.655 176.592Z" fill="#FFB7C2"/>
<path d="M326.655 176.592L367.193 148.599L312.593 129.716L326.655 176.592Z" fill="#FFB7C2"/>
<path d="M326.654 176.592L368.918 147.234L365.343 206.006L326.654 176.592Z" fill="#FA8B9D"/>
</g>
<mask id="mask8" mask-type="alpha" maskUnits="userSpaceOnUse" x="235" y="171" width="31" height="31">
<path d="M256.064 173.24C259.887 171.642 263.883 175.123 262.826 179.13L262.325 181.026C261.905 182.617 262.295 184.313 263.367 185.561L264.646 187.048C267.347 190.191 265.272 195.067 261.134 195.299L259.176 195.409C257.533 195.501 256.04 196.396 255.185 197.802L254.165 199.477C252.011 203.018 246.732 202.551 245.233 198.687L244.523 196.859C243.928 195.325 242.615 194.182 241.014 193.803L239.106 193.351C235.073 192.396 233.886 187.231 237.097 184.611L238.617 183.371C239.892 182.331 240.573 180.73 240.439 179.09L240.279 177.135C239.941 173.005 244.486 170.28 247.97 172.524L249.619 173.586C251.002 174.477 252.736 174.63 254.254 173.996L256.064 173.24Z" fill="#C4C4C4"/>
</mask>
<g mask="url(#mask8)">
<path d="M256.064 173.24C259.887 171.642 263.883 175.123 262.826 179.13L262.325 181.026C261.905 182.617 262.295 184.313 263.367 185.561L264.646 187.048C267.347 190.191 265.272 195.067 261.134 195.299L259.176 195.409C257.533 195.501 256.04 196.396 255.185 197.802L254.165 199.477C252.011 203.018 246.732 202.551 245.233 198.687L244.523 196.859C243.928 195.325 242.615 194.182 241.014 193.803L239.106 193.351C235.073 192.396 233.886 187.231 237.097 184.611L238.617 183.371C239.892 182.331 240.573 180.73 240.439 179.09L240.279 177.135C239.941 173.005 244.486 170.28 247.97 172.524L249.619 173.586C251.002 174.477 252.736 174.63 254.254 173.996L256.064 173.24Z" fill="#FFD9E3"/>
<path d="M250.851 186.05L230.022 190.838L248.982 207.548L250.851 186.05Z" fill="#F1768A"/>
<path d="M250.852 186.05L239.589 167.029L230.649 190.795L250.852 186.05Z" fill="#FFB7C2"/>
<path d="M250.851 186.05L270.278 194.347L264.634 170.226L250.851 186.05Z" fill="#FFB7C2"/>
<path d="M250.852 186.05L271.169 194.661L249.037 206.811L250.852 186.05Z" fill="#FA8B9D"/>
</g>
<mask id="mask9" mask-type="alpha" maskUnits="userSpaceOnUse" x="84" y="280" width="32" height="32">
<path d="M105.673 282.494C109.497 280.896 113.493 284.377 112.435 288.384L111.934 290.28C111.514 291.871 111.904 293.567 112.977 294.815L114.255 296.302C116.956 299.445 114.881 304.321 110.743 304.553L108.785 304.663C107.142 304.755 105.65 305.65 104.794 307.056L103.775 308.731C101.62 312.271 96.3416 311.805 94.8421 307.941L94.1325 306.113C93.5371 304.579 92.2249 303.436 90.6235 303.057L88.7151 302.605C84.6825 301.65 83.4954 296.485 86.7064 293.865L88.2259 292.625C89.501 291.585 90.1825 289.984 90.0483 288.344L89.8884 286.389C89.5505 282.259 94.0955 279.534 97.5794 281.778L99.2281 282.84C100.612 283.731 102.345 283.884 103.863 283.25L105.673 282.494Z" fill="#C4C4C4"/>
</mask>
<g mask="url(#mask9)">
<path d="M105.673 282.494C109.497 280.896 113.493 284.377 112.435 288.384L111.934 290.28C111.514 291.871 111.904 293.567 112.977 294.815L114.255 296.302C116.956 299.445 114.881 304.321 110.743 304.553L108.785 304.663C107.142 304.755 105.65 305.65 104.794 307.056L103.775 308.731C101.62 312.271 96.3416 311.805 94.8421 307.941L94.1325 306.113C93.5371 304.579 92.2249 303.436 90.6235 303.057L88.7151 302.605C84.6825 301.65 83.4954 296.485 86.7064 293.865L88.2259 292.625C89.501 291.585 90.1825 289.984 90.0483 288.344L89.8884 286.389C89.5505 282.259 94.0955 279.534 97.5794 281.778L99.2281 282.84C100.612 283.731 102.345 283.884 103.863 283.25L105.673 282.494Z" fill="#FFD9E3"/>
<path d="M100.461 295.304L79.6318 300.092L98.5912 316.802L100.461 295.304Z" fill="#F1768A"/>
<path d="M100.461 295.304L89.1987 276.283L80.2579 300.049L100.461 295.304Z" fill="#FFB7C2"/>
<path d="M100.46 295.304L119.887 303.601L114.244 279.48L100.46 295.304Z" fill="#FFB7C2"/>
<path d="M100.462 295.304L120.778 303.915L98.6461 316.065L100.462 295.304Z" fill="#FA8B9D"/>
</g>
</svg>
